HIERARCHY
ROOT Hips
{
	OFFSET 0.00 0.00 0.00
	CHANNELS 6 Xposition Yposition Zposition Xrotation Yrotation Zrotation
	JOINT RightUpLeg
	{
		OFFSET -3.69398 0.00000 0.00000
		CHANNELS 3 Xrotation Yrotation Zrotation
		JOINT RightLeg
		{
			OFFSET 0.00000 -15.79567 0.00000
			CHANNELS 3 Xrotation Yrotation Zrotation
			JOINT RightFoot
			{
				OFFSET 0.00000 -14.76699 0.00000
				CHANNELS 3 Xrotation Yrotation Zrotation
				JOINT RightToeBase
				{
					OFFSET 0.00000 -1.28446 4.79369
					CHANNELS 3 Xrotation Yrotation Zrotation
					End Site
					{
						OFFSET 0.00000 0.00000 2.95275
					}
				}
			}
		}
	}
	JOINT LeftUpLeg
	{
		OFFSET 3.69398 0.00000 0.00000
		CHANNELS 3 Xrotation Yrotation Zrotation
		JOINT LeftLeg
		{
			OFFSET 0.00000 -15.79567 0.00000
			CHANNELS 3 Xrotation Yrotation Zrotation
			JOINT LeftFoot
			{
				OFFSET 0.00000 -14.76699 0.00000
				CHANNELS 3 Xrotation Yrotation Zrotation
				JOINT LeftToeBase
				{
					OFFSET 0.00000 -1.28446 4.79369
					CHANNELS 3 Xrotation Yrotation Zrotation
					End Site
					{
						OFFSET 0.00000 0.00000 2.95275
					}
				}
			}
		}
	}
	JOINT Spine
	{
		OFFSET 0.00000 2.39296 0.00000
		CHANNELS 3 Xrotation Yrotation Zrotation
		JOINT RightShoulder
		{
			OFFSET 0.00000 13.20741 0.00000
			CHANNELS 3 Xrotation Yrotation Zrotation
			JOINT RightArm
			{
				OFFSET -8.14047 0.00000 0.00000
				CHANNELS 3 Xrotation Yrotation Zrotation
				JOINT RightForeArm
				{
					OFFSET -10.64984 0.00000 0.00000
					CHANNELS 3 Yrotation Zrotation Xrotation
					JOINT RightHand
					{
						OFFSET -8.30462 0.00000 0.00000
						CHANNELS 3 Xrotation Yrotation Zrotation
						End Site
						{
							OFFSET -3.93700 0.00000 0.00000
						}
						JOINT RightHandThumb1
						{
							OFFSET 0.00000 0.00000 0.00000
							CHANNELS 3 Xrotation Zrotation Yrotation
							End Site
							{
								OFFSET 0.00000 0.00000 3.93700
							}
						}
					}
				}
			}
		}
		JOINT LeftShoulder
		{
			OFFSET 0.00000 13.20741 0.00000
			CHANNELS 3 Xrotation Yrotation Zrotation
			JOINT LeftArm
			{
				OFFSET 8.14047 0.00000 0.00000
				CHANNELS 3 Xrotation Yrotation Zrotation
				JOINT LeftForeArm
				{
					OFFSET 10.64984 0.00000 0.00000
					CHANNELS 3 Yrotation Zrotation Xrotation
					JOINT LeftHand
					{
						OFFSET 8.30462 0.00000 0.00000
						CHANNELS 3 Xrotation Yrotation Zrotation
						End Site
						{
							OFFSET 3.93700 0.00000 0.00000
						}
						JOINT LeftHandThumb1
						{
							OFFSET 0.00000 0.00000 0.00000
							CHANNELS 3 Xrotation Zrotation Yrotation
							End Site
							{
								OFFSET 0.00000 0.00000 3.93700
							}
						}
					}
				}
			}
		}
		JOINT Head
		{
			OFFSET 0.00000 19.25010 0.00000
			CHANNELS 3 Xrotation Yrotation Zrotation
			End Site
			{
				OFFSET 0.00000 4.52755 0.00000
			}
		}
	}
}
MOTION
Frames: 13
Frame Time: 0.008333
 -7.0042 32.5916 -7.3213 38.6506 6.8415 -3.4792 -30.5071 -16.2540 -0.8053 -4.4418 -0.0000 0.0000 -9.3396 -4.9509 22.0939 23.3031 -0.0000 -0.0000 -33.4656 4.4536 0.1696 1.0145 -0.0000 0.0000 -10.3534 -4.0905 -11.2825 11.3238 0.0000 0.0000 -42.5343 -3.2310 -1.2689 -23.9126 -1.2989 -43.5409 12.5060 14.2225 39.0468 -6.6942 0.0000 -4.8242 -0.8409 5.6972 8.4104 32.8623 0.0000 -24.3270 -5.7190 10.2608 40.3804 -24.3003 -7.7047 -38.7441 4.7859 0.0000 11.3373 1.2406 23.4324 -3.1172 33.1476 -0.0000 26.2537 4.9211 0.1271 5.3543
 -6.9990 32.5921 -7.3253 38.6620 6.8347 -3.4749 -30.5269 -16.2490 -0.8178 -4.4479 0.0000 0.0000 -9.3269 -4.9491 22.1160 23.3035 -0.0000 0.0000 -33.4788 4.4376 0.1595 1.0102 0.0000 -0.0000 -10.3476 -4.0779 -11.2857 11.3292 0.0000 -0.0000 -42.5263 -3.2286 -1.2696 -23.8928 -1.3052 -43.5346 12.6254 14.3299 39.0388 -6.6787 0.0000 -4.9620 -0.8400 5.6941 8.4063 32.8623 0.0000 -24.3270 -5.7056 10.2871 40.3845 -24.2847 -7.6999 -38.7617 4.7851 0.0000 11.3341 1.2488 23.4255 -3.1385 33.1476 -0.0000 26.2537 4.9050 0.1344 5.3495
 -6.9946 32.5926 -7.3291 38.6688 6.8205 -3.4662 -30.5467 -16.2364 -0.8289 -4.4450 -0.0000 0.0000 -9.3203 -4.9405 22.0848 23.2952 0.0000 0.0000 -33.4878 4.4272 0.1490 1.0100 -0.0000 0.0000 -10.3440 -4.0573 -11.2792 11.3333 0.0000 0.0000 -42.5163 -3.2165 -1.2672 -23.8776 -1.2969 -43.5339 12.6250 14.3410 39.0584 -6.6924 0.0000 -4.9618 -0.8416 5.6820 8.4390 32.8623 0.0000 -24.3270 -5.7015 10.2935 40.3754 -24.2450 -7.7036 -38.7586 4.7971 0.0000 11.3130 1.2694 23.4283 -3.1898 33.1476 -0.0000 26.2537 4.9006 0.1418 5.3349
 -6.9908 32.5926 -7.3324 38.6759 6.8053 -3.4601 -30.5593 -16.2359 -0.8341 -4.4530 0.0000 -0.0000 -9.3002 -4.9157 22.1047 23.2666 -0.0000 -0.0000 -33.4998 4.4532 0.1435 1.0089 -0.0000 -0.0000 -10.3318 -4.0580 -11.2525 11.2809 -0.0000 0.0000 -42.5046 -3.1919 -1.2656 -23.8619 -1.3111 -43.5256 12.6052 14.3316 39.0674 -6.6932 0.0000 -4.9330 -0.8483 5.7043 8.4728 32.8623 0.0000 -24.3270 -5.6839 10.3096 40.3773 -24.2343 -7.7083 -38.7776 4.8063 0.0000 11.2927 1.3270 23.4532 -3.3309 33.1476 -0.0000 26.2537 4.8851 0.1206 5.3258
 -6.9860 32.5932 -7.3357 38.6804 6.7995 -3.4551 -30.5682 -16.2224 -0.8432 -4.4642 0.0000 0.0000 -9.2832 -4.9512 22.1595 23.2920 0.0000 -0.0000 -33.5073 4.4484 0.1315 1.0077 0.0000 -0.0000 -10.3121 -4.0356 -11.2977 11.2664 0.0000 0.0000 -42.4933 -3.1772 -1.2598 -23.8334 -1.3331 -43.5330 12.5805 14.3494 39.0889 -6.7007 0.0000 -4.9357 -0.8440 5.6717 8.4788 32.8623 0.0000 -24.3270 -5.6818 10.3045 40.3513 -24.2988 -7.6479 -38.7786 4.8426 0.0000 11.4024 1.3286 23.4359 -3.3373 33.1476 -0.0000 26.2537 4.8757 0.1253 5.3003
 -6.9806 32.5934 -7.3389 38.6889 6.7915 -3.4419 -30.5811 -16.2271 -0.8584 -4.4785 -0.0000 -0.0000 -9.2580 -4.9189 22.0969 23.2144 0.0000 -0.0000 -33.5150 4.4408 0.1112 1.0056 0.0000 -0.0000 -10.3287 -4.0261 -11.2337 11.3022 0.0000 0.0000 -42.4874 -3.1610 -1.2639 -23.8057 -1.3342 -43.5288 12.5689 14.3506 39.1095 -6.7209 0.0000 -4.9375 -0.8481 5.6915 8.4893 32.8623 0.0000 -24.3270 -5.6616 10.3213 40.3482 -24.3043 -7.6244 -38.8002 4.8419 0.0000 11.3730 1.2731 23.3748 -3.2061 33.1476 -0.0000 26.2537 4.8747 0.1240 5.2906
 -6.9766 32.5935 -7.3410 38.6948 6.7769 -3.4440 -30.5973 -16.2753 -0.8572 -4.4748 -0.0000 -0.0000 -9.2607 -4.8859 22.1445 23.2961 -0.0000 -0.0000 -33.5289 4.4756 0.1124 1.0140 0.0000 0.0000 -10.3310 -4.0520 -11.1949 11.3054 -0.0000 -0.0000 -42.4809 -3.1394 -1.2541 -23.8213 -1.3093 -43.5221 12.6433 14.3904 39.1070 -6.7618 0.0000 -5.0239 -0.8616 5.6981 8.6135 32.8623 0.0000 -24.3270 -5.6515 10.3200 40.3708 -24.0181 -7.7789 -38.8231 4.7751 0.0000 11.0613 1.3055 23.4034 -3.2836 33.1476 -0.0000 26.2537 4.8752 0.1106 5.2820
 -6.9731 32.5938 -7.3443 38.7054 6.7669 -3.4419 -30.6165 -16.2856 -0.8614 -4.4750 -0.0000 0.0000 -9.2468 -4.8643 22.1746 23.2935 0.0000 0.0000 -33.5410 4.4632 0.1056 1.0101 0.0000 -0.0000 -10.3238 -4.0275 -11.1953 11.2807 -0.0000 -0.0000 -42.4739 -3.1169 -1.2573 -23.8263 -1.2911 -43.5034 12.6959 14.3770 39.1077 -6.7560 0.0000 -5.0555 -0.8699 5.7533 8.6129 32.8623 0.0000 -24.3270 -5.6614 10.3157 40.3957 -23.9196 -7.8225 -38.8671 4.7591 0.0000 10.9450 1.3065 23.4411 -3.2812 33.1476 -0.0000 26.2537 4.8838 0.0916 5.2728
 -6.9688 32.5939 -7.3473 38.7134 6.7601 -3.4348 -30.6295 -16.2723 -0.8719 -4.4841 0.0000 0.0000 -9.2408 -4.8775 22.1676 23.3059 0.0000 0.0000 -33.5509 4.4721 0.0927 1.0089 -0.0000 0.0000 -10.3224 -4.0239 -11.1744 11.2779 -0.0000 0.0000 -42.4710 -3.1014 -1.2561 -23.8036 -1.2835 -43.5007 12.6993 14.3693 39.1225 -6.7610 0.0000 -5.0672 -0.8735 5.7433 8.6624 32.8623 0.0000 -24.3270 -5.6215 10.3523 40.3811 -24.1674 -7.6605 -38.9051 4.7831 0.0000 11.2140 1.3180 23.4091 -3.3143 33.1476 -0.0000 26.2537 4.8858 0.1050 5.2714
 -6.9659 32.5943 -7.3497 38.7199 6.7514 -3.4318 -30.6434 -16.2805 -0.8771 -4.4826 -0.0000 0.0000 -9.2283 -4.8641 22.2019 23.2927 0.0000 0.0000 -33.5593 4.4665 0.0899 1.0091 -0.0000 -0.0000 -10.3296 -4.0186 -11.1987 11.3293 0.0000 -0.0000 -42.4648 -3.0727 -1.2581 -23.7892 -1.3159 -43.4906 12.6932 14.3946 39.1312 -6.7730 0.0000 -5.1071 -0.8661 5.6948 8.6620 32.8623 0.0000 -24.3270 -5.6141 10.3357 40.3521 -24.2979 -7.5918 -38.9060 4.8697 0.0000 11.4018 1.3103 23.3926 -3.2973 33.1476 -0.0000 26.2537 4.8914 0.0871 5.2708
 -6.9642 32.5949 -7.3514 38.7288 6.7433 -3.4406 -30.6549 -16.2890 -0.8716 -4.4793 -0.0000 -0.0000 -9.2237 -4.8530 22.2077 23.3392 -0.0000 0.0000 -33.5718 4.4696 0.0974 1.0090 -0.0000 -0.0000 -10.3239 -4.0131 -11.1979 11.3114 0.0000 0.0000 -42.4629 -3.0503 -1.2567 -23.7925 -1.3165 -43.4790 12.6720 14.3583 39.1528 -6.7883 0.0000 -5.0837 -0.8726 5.7324 8.6697 32.8623 0.0000 -24.3270 -5.6033 10.3417 40.3830 -24.1615 -7.6774 -38.9507 4.8346 0.0000 11.2308 1.3400 23.3522 -3.3773 33.1476 -0.0000 26.2537 4.9173 0.0660 5.2735
 -6.9605 32.5948 -7.3529 38.7322 6.7447 -3.4447 -30.6601 -16.3173 -0.8748 -4.4834 -0.0000 -0.0000 -9.2094 -4.8215 22.1966 23.3044 0.0000 -0.0000 -33.5787 4.4853 0.0904 1.0131 -0.0000 -0.0000 -10.3297 -4.0389 -11.1379 11.3145 0.0000 -0.0000 -42.4618 -3.0294 -1.2543 -23.7708 -1.3254 -43.4785 12.6593 14.3384 39.1753 -6.7829 0.0000 -5.0531 -0.8660 5.7004 8.6535 32.8623 0.0000 -24.3270 -5.5734 10.3328 40.3759 -24.1687 -7.6789 -38.9710 4.8643 0.0000 11.2319 1.3576 23.3254 -3.4253 33.1476 -0.0000 26.2537 4.9492 0.0621 5.2746
 -6.9578 32.5951 -7.3545 38.7345 6.7430 -3.4418 -30.6633 -16.3057 -0.8824 -4.4903 0.0000 0.0000 -9.2096 -4.8373 22.2062 23.3165 -0.0000 -0.0000 -33.5815 4.4764 0.0849 1.0094 0.0000 -0.0000 -10.3207 -4.0290 -11.1553 11.2743 0.0000 -0.0000 -42.4567 -3.0169 -1.2592 -23.7518 -1.3398 -43.4670 12.6293 14.3305 39.1925 -6.7845 0.0000 -5.0685 -0.8654 5.7028 8.6438 32.8623 0.0000 -24.3270 -5.5607 10.3141 40.3755 -24.0560 -7.7517 -38.9741 4.9055 0.0000 11.0681 1.3844 23.2919 -3.4976 33.1476 -0.0000 26.2537 4.9858 0.0594 5.2716
